<?xml version="1.0" encoding="UTF-8"?><svg xmlns="http://www.w3.org/2000/svg" viewBox="0 0 11.74 11.74"><defs><style>.d{fill:#1d1d1b;}</style></defs><g id="a"/><g id="b"><g id="c"><g><path class="d" d="M8.27,2.7c-.53-.21-1.81-.16-2.4-.16s-1.86-.05-2.4,.16c-.36,.14-.63,.42-.77,.77-.21,.53-.16,1.81-.16,2.4s-.05,1.86,.16,2.4c.14,.36,.42,.63,.77,.77,.53,.21,1.81,.16,2.4,.16s1.86,.05,2.4-.16c.36-.14,.63-.42,.77-.77,.21-.53,.16-1.81,.16-2.4s.05-1.86-.16-2.4c-.14-.36-.42-.63-.77-.77Zm-2.4,5.26c-1.16,0-2.09-.93-2.09-2.09s.93-2.09,2.09-2.09,2.09,.93,2.09,2.09-.93,2.09-2.09,2.09Zm2.17-3.77c-.27,0-.49-.22-.49-.49s.22-.49,.49-.49,.49,.22,.49,.49-.22,.49-.49,.49Z"/><path class="d" d="M5.87,4.51c-.75,0-1.36,.61-1.36,1.36s.61,1.36,1.36,1.36,1.36-.61,1.36-1.36-.61-1.36-1.36-1.36Z"/><path class="d" d="M5.87,0C2.63,0,0,2.63,0,5.87s2.63,5.87,5.87,5.87,5.87-2.63,5.87-5.87S9.11,0,5.87,0Zm4.04,7.55c-.03,.65-.18,1.23-.66,1.71-.48,.48-1.05,.63-1.71,.66-.67,.04-2.69,.04-3.36,0-.65-.03-1.23-.18-1.71-.66-.48-.48-.63-1.05-.66-1.71-.04-.67-.04-2.69,0-3.36,.03-.65,.18-1.23,.66-1.71,.48-.48,1.06-.63,1.71-.66,.67-.04,2.69-.04,3.36,0,.65,.03,1.23,.18,1.71,.66,.48,.48,.63,1.05,.66,1.71,.04,.67,.04,2.69,0,3.36Z"/></g></g></g></svg>