<?xml version="1.0" encoding="UTF-8"?><svg id="Calque_2" xmlns="http://www.w3.org/2000/svg" xmlns:xlink="http://www.w3.org/1999/xlink" viewBox="0 0 11.74 11.74"><defs><style>.cls-1{fill:#fff;}.cls-2{fill:url(#linear-gradient);}</style><linearGradient id="linear-gradient" x1="10.09" y1="1.65" x2="1.91" y2="9.83" gradientUnits="userSpaceOnUse"><stop offset=".01" stop-color="#494798"/><stop offset=".18" stop-color="#7f4795"/><stop offset=".3" stop-color="#a04794"/><stop offset=".36" stop-color="#a4448d"/><stop offset=".44" stop-color="#af3d7a"/><stop offset=".53" stop-color="#c2305c"/><stop offset=".6" stop-color="#d5253e"/><stop offset=".88" stop-color="#f6a128"/><stop offset="1" stop-color="#f6da26"/></linearGradient></defs><g id="Calque_1-2"><g><rect class="cls-2" x="0" y="0" width="11.74" height="11.74" rx="5.87" ry="5.87"/><path class="cls-1" d="M8.13,2.67c.5,0,.91,.41,.91,.91v4.52c0,.5-.41,.91-.91,.91H3.61c-.5,0-.91-.41-.91-.91V3.58c0-.5,.41-.91,.91-.91h4.52m0-.9H3.61c-1,0-1.81,.81-1.81,1.81v4.52c0,1,.81,1.81,1.81,1.81h4.52c1,0,1.81-.81,1.81-1.81V3.58c0-1-.81-1.81-1.81-1.81h0Z"/><path class="cls-1" d="M5.87,4.48c.73,0,1.33,.6,1.33,1.33s-.6,1.33-1.33,1.33-1.33-.6-1.33-1.33,.6-1.33,1.33-1.33m0-.6c-1.07,0-1.93,.86-1.93,1.93s.86,1.93,1.93,1.93,1.93-.86,1.93-1.93-.86-1.93-1.93-1.93h0Z"/><circle class="cls-1" cx="8.05" cy="3.64" r=".52"/></g></g></svg>