<?xml version="1.0" encoding="UTF-8"?><svg id="Calque_2" xmlns="http://www.w3.org/2000/svg" viewBox="0 0 11.74 11.74"><defs><style>.cls-1{fill:#2365af;}</style></defs><g id="Calque_1-2"><path class="cls-1" d="M5.87,0C2.63,0,0,2.63,0,5.87s2.63,5.87,5.87,5.87,5.87-2.63,5.87-5.87S9.11,0,5.87,0Zm-1.73,9.15h-1.5V4.33h1.5v4.82Zm-.75-5.48c-.48,0-.87-.4-.87-.88s.39-.87,.87-.87,.87,.39,.87,.87-.39,.88-.87,.88Zm6.36,5.48h-1.5v-2.35c0-.56-.01-1.28-.78-1.28s-.9,.61-.9,1.24v2.39h-1.5V4.33h1.44v.66h.02c.2-.38,.69-.78,1.42-.78,1.52,0,1.79,1,1.79,2.29v2.65Z"/></g></svg>