<?xml version="1.0" encoding="UTF-8"?><svg id="Calque_2" xmlns="http://www.w3.org/2000/svg" viewBox="0 0 11.74 11.74"><defs><style>.cls-1{fill:#3d95d2;}</style></defs><g id="Calque_1-2"><path class="cls-1" d="M5.87,0C2.63,0,0,2.63,0,5.87s2.63,5.87,5.87,5.87,5.87-2.63,5.87-5.87S9.11,0,5.87,0Zm3.25,4.54c0,.07,0,.14,0,.21,0,2.13-1.62,4.58-4.58,4.58-.91,0-1.76-.26-2.47-.72,.13,.02,.25,.02,.39,.02,.75,0,1.45-.25,2-.69-.71-.01-1.3-.48-1.51-1.12,.1,.01,.2,.02,.3,.02,.14,0,.29-.02,.42-.05-.74-.15-1.29-.8-1.29-1.58v-.02c.21,.12,.46,.19,.73,.2-.43-.29-.72-.78-.72-1.34,0-.3,.08-.57,.22-.81,.79,.98,1.99,1.62,3.32,1.69-.02-.12-.04-.24-.04-.37,0-.89,.72-1.61,1.61-1.61,.46,0,.88,.19,1.18,.51,.36-.07,.71-.2,1.02-.39-.12,.37-.37,.69-.71,.89,.32-.04,.64-.12,.93-.25-.22,.32-.49,.6-.81,.83Z"/></g></svg>