<?xml version="1.0" encoding="UTF-8"?><svg id="Calque_2" xmlns="http://www.w3.org/2000/svg" viewBox="0 0 11.74 11.74"><defs><style>.cls-1{fill:#e52621;}</style></defs><g id="Calque_1-2"><g><polygon class="cls-1" points="5 7.14 7.23 5.87 5 4.61 5 7.14"/><path class="cls-1" d="M5.87,0C2.63,0,0,2.63,0,5.87s2.63,5.87,5.87,5.87,5.87-2.63,5.87-5.87S9.11,0,5.87,0Zm4.07,7.94c-.1,.37-.39,.65-.75,.74-.66,.18-3.32,.18-3.32,.18,0,0-2.66,0-3.32-.18-.37-.1-.65-.38-.75-.75-.18-.67-.18-2.06-.18-2.06,0,0,0-1.39,.18-2.06,.1-.37,.39-.66,.75-.76,.66-.18,3.32-.18,3.32-.18,0,0,2.66,0,3.32,.18,.37,.1,.65,.39,.75,.76,.18,.67,.18,2.06,.18,2.06,0,0,0,1.39-.18,2.06Z"/></g></g></svg>