<?xml version="1.0" encoding="UTF-8"?><svg xmlns="http://www.w3.org/2000/svg" viewBox="0 0 10.51 10.5"><defs><style>.d{fill:#1d1d1b;}</style></defs><g id="a"/><g id="b"><g id="c"><path class="d" d="M10.47,7.42c-.04,.84-.23,1.59-.85,2.2-.61,.62-1.36,.81-2.2,.85-.87,.05-3.47,.05-4.33,0-.84-.04-1.58-.23-2.2-.85C.27,9,.08,8.26,.04,7.42-.01,6.55-.01,3.95,.04,3.08c.04-.84,.23-1.59,.85-2.2S2.25,.08,3.09,.04C3.95-.01,6.55-.01,7.42,.04c.84,.04,1.59,.23,2.2,.85,.62,.61,.81,1.36,.85,2.2,.05,.87,.05,3.46,0,4.33Zm-.91-2.17c0-.76,.06-2.4-.21-3.1-.19-.46-.54-.82-1-1-.69-.27-2.33-.21-3.1-.21s-2.41-.06-3.1,.21c-.46,.19-.82,.54-1,1-.27,.69-.21,2.33-.21,3.1s-.06,2.4,.21,3.1c.19,.46,.54,.82,1,1,.69,.27,2.33,.21,3.1,.21s2.4,.06,3.1-.21c.46-.19,.82-.54,1-1,.27-.69,.21-2.33,.21-3.1Zm-1.61,0c0,1.49-1.2,2.69-2.69,2.69s-2.69-1.2-2.69-2.69,1.2-2.69,2.69-2.69,2.69,1.2,2.69,2.69Zm-.94,0c0-.97-.79-1.75-1.75-1.75s-1.75,.79-1.75,1.75,.79,1.75,1.75,1.75,1.75-.79,1.75-1.75Zm1.05-2.17c-.35,0-.63-.28-.63-.63s.28-.63,.63-.63,.63,.28,.63,.63-.28,.63-.63,.63Z"/></g></g></svg>