<?xml version="1.0" encoding="UTF-8"?><svg xmlns="http://www.w3.org/2000/svg" viewBox="0 0 12 9.75"><defs><style>.d{fill:#1d1d1b;}</style></defs><g id="a"/><g id="b"><g id="c"><path class="d" d="M10.77,2.75c0,3.25-2.47,7-7,7-1.39,0-2.69-.4-3.78-1.1,.2,.02,.39,.03,.59,.03,1.15,0,2.21-.39,3.05-1.05-1.08-.02-1.99-.73-2.3-1.71,.15,.02,.3,.04,.46,.04,.22,0,.44-.03,.65-.08-1.13-.23-1.97-1.22-1.97-2.41v-.03c.33,.18,.71,.3,1.11,.31-.66-.44-1.1-1.2-1.1-2.05,0-.46,.12-.88,.33-1.24,1.21,1.49,3.03,2.47,5.07,2.57-.04-.18-.06-.37-.06-.56,0-1.36,1.1-2.46,2.46-2.46,.71,0,1.35,.3,1.8,.78,.56-.11,1.09-.31,1.56-.59-.18,.57-.57,1.05-1.08,1.36,.5-.05,.97-.19,1.42-.38-.33,.49-.75,.92-1.23,1.27,0,.11,0,.21,0,.32Z"/></g></g></svg>