<?xml version="1.0" encoding="UTF-8"?><svg id="Calque_2" xmlns="http://www.w3.org/2000/svg" xmlns:xlink="http://www.w3.org/1999/xlink" viewBox="0 0 10.6 10.6"><defs><style>.cls-1{fill:#fff;}.cls-2{fill:url(#radial-gradient);}</style><radialGradient id="radial-gradient" cx="1.71" cy="10.46" fx="1.71" fy="10.46" r="12.79" gradientUnits="userSpaceOnUse"><stop offset="0" stop-color="#fbbf53"/><stop offset=".33" stop-color="#e62a41"/><stop offset=".65" stop-color="#9f4091"/><stop offset="1" stop-color="#4a4d9b"/></radialGradient></defs><g id="Calque_1-2"><g><path class="cls-2" d="M10.6,8.87q0,1.73-1.73,1.73H1.73c-1.7,0-1.73-.09-1.73-1.73V1.73C0,.06,0,0,1.73,0h7.15c1.73,0,1.73,.01,1.73,1.73v7.15Z"/><g><path class="cls-1" d="M7.18,9.66H3.42c-1.37,0-2.48-1.11-2.48-2.48V3.42C.94,2.05,2.05,.94,3.42,.94h3.76c1.37,0,2.48,1.11,2.48,2.48v3.76c0,1.37-1.11,2.48-2.48,2.48ZM3.42,1.68c-.96,0-1.74,.78-1.74,1.74v3.76c0,.96,.78,1.74,1.74,1.74h3.76c.96,0,1.74-.78,1.74-1.74V3.42c0-.96-.78-1.74-1.74-1.74H3.42Z"/><path class="cls-1" d="M5.3,7.54c-1.23,0-2.23-1-2.23-2.23s1-2.23,2.23-2.23,2.23,1,2.23,2.23-1,2.23-2.23,2.23Zm0-3.72c-.82,0-1.49,.67-1.49,1.49s.67,1.49,1.49,1.49,1.49-.67,1.49-1.49-.67-1.49-1.49-1.49Z"/><path class="cls-1" d="M8.17,2.94c0,.3-.24,.54-.54,.54s-.54-.24-.54-.54,.24-.54,.54-.54,.54,.24,.54,.54Z"/></g></g></g></svg>