<?xml version="1.0" encoding="UTF-8"?><svg xmlns="http://www.w3.org/2000/svg" viewBox="0 0 10.54 10.54"><defs><style>.d{fill:#1d1d1b;}</style></defs><g id="a"/><g id="b"><g id="c"><g><path class="d" d="M2.89,8.24c.52,.21,1.77,.16,2.35,.16s1.83,.05,2.35-.16c.35-.14,.62-.41,.76-.76,.21-.52,.16-1.77,.16-2.35s.05-1.83-.16-2.35c-.14-.35-.41-.62-.76-.76-.02,0-.04-.01-.07-.02H2.95s-.05,.01-.07,.02c-.35,.14-.62,.41-.76,.76-.07,.18-.11,.43-.13,.72v3.27c.02,.28,.06,.54,.13,.71,.14,.35,.41,.62,.76,.76ZM7.37,2.52c.26,0,.48,.21,.48,.48s-.21,.48-.48,.48-.48-.21-.48-.48,.21-.48,.48-.48Zm-2.13,.56c1.13,0,2.04,.91,2.04,2.04s-.91,2.04-2.04,2.04-2.04-.91-2.04-2.04,.91-2.04,2.04-2.04Z"/><path class="d" d="M8.54,8.54v-.1s-.08,.06-.12,.1h.12Z"/><path class="d" d="M2,8.54h.05s-.04-.03-.05-.04v.04Z"/><circle class="d" cx="5.24" cy="5.13" r="1.33"/><path class="d" d="M9.54,0H1C.45,0,0,.45,0,1V9.54c0,.55,.45,1,1,1H9.54c.55,0,1-.45,1-1V1c0-.55-.45-1-1-1Zm0,9.54H1V1H9.55V9.54Z"/><path class="d" d="M1,9.54H9.55V1H1V9.54Zm.28-6.06c.03-.64,.18-1.2,.64-1.67,.47-.47,1.03-.61,1.67-.64,.66-.04,2.63-.04,3.29,0,.64,.03,1.21,.18,1.67,.64,.47,.47,.61,1.03,.64,1.67,.04,.66,.04,2.63,0,3.29-.03,.64-.18,1.2-.64,1.67h0v.1h-.12c-.44,.38-.96,.51-1.54,.54-.66,.04-2.63,.04-3.29,0-.58-.03-1.1-.17-1.54-.54h-.05v-.04s-.05-.04-.08-.06c-.47-.47-.61-1.03-.64-1.67-.04-.66-.04-2.63,0-3.29Z"/><path class="d" d="M1.97,5.13c0,.39-.02,1.07,.03,1.64V3.5c-.05,.57-.03,1.24-.03,1.63Z"/><path class="d" d="M5.24,1.86c-.56,0-1.73-.04-2.29,.14H7.53c-.55-.18-1.73-.14-2.29-.14Z"/></g></g></g></svg>