<?xml version="1.0" encoding="UTF-8"?><svg xmlns="http://www.w3.org/2000/svg" viewBox="0 0 10.5 10.5"><defs><style>.d{fill:#1d1d1b;}</style></defs><g id="a"/><g id="b"><g id="c"><path class="d" d="M10.5,.76V9.74c0,.42-.34,.76-.75,.76H.75c-.41,0-.75-.34-.75-.76V.76C0,.34,.33,0,.75,0H9.75c.41,0,.75,.34,.75,.76ZM3.3,2.4c0-.5-.41-.9-.9-.9s-.9,.41-.9,.9,.4,.9,.9,.9,.9-.4,.9-.9Zm-.12,6.6V3.99H1.62v5.01h1.56Zm5.83-2.75c0-1.35-.29-2.39-1.87-2.39-.76,0-1.27,.42-1.47,.81h-.02v-.68h-1.49v5.01h1.56v-2.48c0-.65,.12-1.29,.94-1.29s.81,.75,.81,1.33v2.44h1.56v-2.75Z"/></g></g></svg>