<?xml version="1.0" encoding="UTF-8"?><svg xmlns="http://www.w3.org/2000/svg" viewBox="0 0 10.5 10.5"><defs><style>.d{fill:#1d1d1b;}</style></defs><g id="a"/><g id="b"><g id="c"><path class="d" d="M10.5,1.12V9.38c0,.62-.5,1.12-1.12,1.12H1.12c-.62,0-1.12-.5-1.12-1.12V1.12C0,.5,.5,0,1.12,0H9.38c.62,0,1.12,.5,1.12,1.12Zm-1.5,1.8c-.28,.12-.58,.21-.89,.24,.32-.19,.56-.49,.67-.85-.29,.18-.63,.3-.97,.37-.28-.3-.68-.49-1.12-.49-.94,0-1.72,.85-1.5,1.89-1.28-.07-2.41-.68-3.17-1.61-.13,.23-.21,.49-.21,.78h0c0,.46,.31,1.03,.68,1.28-.25,0-.49-.08-.69-.19v.02c0,.75,.53,1.37,1.23,1.51-.24,.06-.46,.06-.69,.03,.19,.61,.76,1.05,1.44,1.07-.53,.41-1.19,.66-1.91,.66-.13,0-.25,0-.37-.02,.68,.44,1.49,.69,2.36,.69,2.83,0,4.37-2.34,4.37-4.37,0-.07,0-.13,0-.2,.3-.22,.56-.49,.77-.8Z"/></g></g></svg>