<?xml version="1.0" encoding="UTF-8"?><svg xmlns="http://www.w3.org/2000/svg" viewBox="0 0 10.5 10.5"><defs><style>.d{fill:#1d1d1b;}</style></defs><g id="a"/><g id="b"><g id="c"><path class="d" d="M10.5,9.38c0,.62-.5,1.12-1.12,1.12H1.12c-.62,0-1.12-.5-1.12-1.12V1.12C0,.5,.5,0,1.12,0H9.38c.62,0,1.12,.5,1.12,1.12V9.38Zm-1.16-6.19c-.1-.37-.39-.66-.75-.76-.66-.18-3.33-.18-3.33-.18,0,0-2.67,0-3.33,.18-.37,.1-.66,.39-.75,.76-.18,.67-.18,2.07-.18,2.07,0,0,0,1.4,.18,2.07,.1,.37,.39,.65,.75,.75,.66,.18,3.33,.18,3.33,.18,0,0,2.67,0,3.33-.18,.37-.1,.66-.38,.75-.75,.18-.67,.18-2.06,.18-2.06,0,0,0-1.4-.18-2.07Zm-2.73,2.06l-2.23,1.27V3.99l2.23,1.27Z"/></g></g></svg>